Coordinates
version=1
nRows=10
nColumns=63
inDegrees=yes

Units are S.I. units (second, meters, Newtons, ...)
If the header above contains a line with 'inDegrees', this indicates whether rotational values are in degrees (yes) or radians (no).

endheader
time	pelvis_tilt	pelvis_list	pelvis_rotation	pelvis_tx	pelvis_ty	pelvis_tz	hip_flexion_r	hip_adduction_r	hip_rotation_r	knee_angle_r	knee_angle_r_beta	ankle_angle_r	subtalar_angle_r	mtp_angle_r	hip_flexion_l	hip_adduction_l	hip_rotation_l	knee_angle_l	knee_angle_l_beta	ankle_angle_l	subtalar_angle_l	mtp_angle_l	L5_S1_Flex_Ext	L5_S1_Lat_Bending	L5_S1_axial_rotation	L4_L5_Flex_Ext	L4_L5_Lat_Bending	L4_L5_axial_rotation	L3_L4_Flex_Ext	L3_L4_Lat_Bending	L3_L4_axial_rotation	L2_L3_Flex_Ext	L2_L3_Lat_Bending	L2_L3_axial_rotation	L1_L2_Flex_Ext	L1_L2_Lat_Bending	L1_L2_axial_rotation	L1_T12_Flex_Ext	L1_T12_Lat_Bending	L1_T12_axial_rotation	Abs_r3	Abs_r2	Abs_r1	Abs_t1	Abs_t2	neck_flexion	neck_bending	neck_rotation	arm_flex_r	arm_add_r	arm_rot_r	elbow_flex_r	pro_sup_r	wrist_flex_r	wrist_dev_r	arm_flex_l	arm_add_l	arm_rot_l	elbow_flex_l	pro_sup_l	wrist_flex_l	wrist_dev_l
      4.45000000	     -1.72605214	     -0.33229333	     98.64586976	      0.26615977	      0.77690004	      0.56168964	     -2.56548407	     -3.37252134	    -19.70803444	      9.57622263	      0.16713661	     29.82256205	      7.06597854	      0.00000000	     -2.82476671	      2.62290362	     11.89390689	      4.81813194	      0.08409227	     27.83304617	     -1.38607116	      0.00000000	      0.24412658	     -0.64471927	     -1.70567015	      0.45336748	     -0.85747663	     -1.81227454	      0.40107556	     -1.56757044	     -1.81227454	      0.27901227	     -1.56757044	     -1.49246138	      0.22669595	     -1.31471154	     -1.38585700	      0.13949393	     -0.99867015	     -1.27925262	      1.74377177	     -7.29319335	     -9.48642570	      0.00000000	      0.00000000	     27.61205743	     -2.22396278	    -14.08327390	     83.23406209	    -22.50830106	     -1.67280825	     90.96291403	     84.58246387	      2.09665323	    -13.33585851	     56.07607491	    -19.67485345	      5.12539052	    115.87454341	     88.56722932	    -13.77796883	    -17.84965482
      4.46666667	     -1.71772766	     -0.39695197	     98.41089475	      0.26603347	      0.77667857	      0.56093878	     -2.48801034	     -3.40130343	    -19.25131257	      9.71818631	      0.16961435	     29.73291829	      6.82304469	      0.00000000	     -2.86295736	      2.66396199	     11.81380818	      4.71762093	      0.08233802	     27.82670233	     -1.61850945	      0.00000000	      0.25248813	     -0.65304676	     -1.58271713	      0.46889571	     -0.86855219	     -1.68163695	      0.41481275	     -1.58781789	     -1.68163695	      0.28856869	     -1.58781789	     -1.38487749	      0.23446048	     -1.33169295	     -1.28595766	      0.14427172	     -1.01156943	     -1.18703784	      1.80349749	     -7.38739553	     -8.80259784	      0.00000000	      0.00000000	     27.66938492	     -2.38604752	    -15.25207565	     82.76068643	    -23.38765294	     -1.26180434	     90.93083765	     84.07387411	      2.23035953	    -15.00030619	     56.38681055	    -19.15780884	      5.64851109	    115.75647781	     88.60742540	    -14.08099997	    -17.96322743
      4.48333333	     -1.75017586	     -0.44057532	     97.96663722	      0.26630392	      0.77655966	      0.56041336	     -2.35927381	     -3.35960739	    -17.29079328	      9.81173160	      0.17124702	     29.35088541	      4.72640044	      0.00000000	     -2.86460063	      2.71229765	     10.56665534	      4.72738993	      0.08250852	     28.05995172	     -0.52035552	      0.00000000	      0.25711619	     -0.66588031	     -1.45373467	      0.47749047	     -0.88562081	     -1.54459308	      0.42241618	     -1.61902138	     -1.54459308	      0.29385809	     -1.61902138	     -1.27201783	      0.23875809	     -1.35786312	     -1.18115942	      0.14691619	     -1.03144859	     -1.09030100	      1.83655520	     -7.53257119	     -8.08523610	      0.00000000	      0.00000000	     27.72685889	     -2.45710332	    -16.43124231	     82.52246712	    -24.15124455	     -0.64773225	     90.86938780	     83.28132316	      1.43821471	    -16.16423728	     56.73856458	    -18.95371778	      6.46964910	    115.63546095	     88.62457101	    -15.95594172	    -18.40702657
      4.50000000	     -1.68583715	     -0.34706633	     97.80802770	      0.26598831	      0.77657709	      0.55989321	     -2.43947086	     -3.29604756	    -16.89316879	      9.87312170	      0.17231848	     29.23494867	      4.35362530	      0.00000000	     -3.06485013	      2.63615094	      9.83040012	      4.58087910	      0.07995142	     28.16042439	      0.30447898	      0.00000000	      0.24779534	     -0.65535516	     -1.43860202	      0.46018072	     -0.87162237	     -1.52851465	      0.40710296	     -1.59343054	     -1.52851465	      0.28320529	     -1.59343054	     -1.25877677	      0.23010275	     -1.33640025	     -1.16886414	      0.14159026	     -1.01514515	     -1.07895152	      1.76997732	     -7.41350868	     -8.00107287	      0.00000000	      0.00000000	     27.78951184	     -2.37019078	    -16.62126595	     82.61721801	    -24.44212091	     -0.05237269	     90.69182458	     81.96349920	      1.62752648	    -15.86420320	     56.60996142	    -18.72868857	      5.96422753	    115.93660724	     88.65253369	    -14.47746880	    -16.98162535
      4.51666667	     -1.69200884	     -0.44039545	     97.46044498	      0.26563720	      0.77634035	      0.55971658	     -2.17256679	     -3.46156319	    -16.94890417	     10.22395547	      0.17844169	     29.41511137	      4.78817483	      0.00000000	     -3.12997916	      2.82979491	     12.41372861	      4.32559065	      0.07549580	     27.28714244	     -3.79643739	      0.00000000	      0.27081414	     -0.64181340	     -1.44340738	      0.50292894	     -0.85361182	     -1.53362034	      0.44492055	     -1.56050510	     -1.53362034	      0.30951348	     -1.56050510	     -1.26298146	      0.25147801	     -1.30878589	     -1.17276850	      0.15474320	     -0.99416896	     -1.08255554	      1.93439832	     -7.26032154	     -8.02779884	      0.00000000	      0.00000000	     27.80230526	     -2.28598639	    -16.05650652	     83.01684267	    -24.36660255	      0.66068816	     90.19723541	     82.46158890	      1.21064167	    -16.75319057	     56.46249548	    -18.98091999	      5.64395542	    116.06210165	     88.61664871	    -14.56411374	    -17.35951902
      4.53333333	     -1.73569696	     -0.44125819	     97.54260983	      0.26512193	      0.77629298	      0.55971350	     -2.12326579	     -3.61008542	    -17.68990040	     10.45025145	      0.18239130	     29.56018445	      5.44865796	      0.00000000	     -2.98636297	      2.82621299	     10.14839271	      4.64448062	      0.08106148	     28.06385108	     -0.53037618	      0.00000000	      0.27332209	     -0.63959552	     -1.53720552	      0.50758645	     -0.85066204	     -1.63328086	      0.44904086	     -1.55511255	     -1.63328086	      0.31237981	     -1.55511255	     -1.34505483	      0.25380689	     -1.30426319	     -1.24897948	      0.15617624	     -0.99073346	     -1.15290414	      1.95231234	     -7.23523245	     -8.54947594	      0.00000000	      0.00000000	     27.80955375	     -2.14983697	    -15.62777029	     83.26019989	    -24.06492492	      0.96435260	     90.00791302	     82.42855144	      1.05744094	    -16.53686110	     56.35032006	    -19.33206490	      5.14726842	    116.34356131	     88.58373582	    -13.81575307	    -16.82981358
      4.55000000	     -1.73524558	     -0.40913386	     97.48210496	      0.26458903	      0.77624749	      0.55944157	     -2.08323267	     -3.70200196	    -17.98410962	     10.71005537	      0.18692573	     29.59930781	      5.62632947	      0.00000000	     -3.16372586	      2.90927434	     11.76391325	      4.40583220	      0.07689628	     27.50067424	     -2.81970607	      0.00000000	      0.27659841	     -0.62605401	     -1.57134905	      0.51367092	     -0.83265184	     -1.66955836	      0.45442354	     -1.52218772	     -1.66955836	      0.31612433	     -1.52218772	     -1.37493041	      0.25684929	     -1.27664934	     -1.27672110	      0.15804833	     -0.96975766	     -1.17851178	      1.97571482	     -7.08204819	     -8.73937198	      0.00000000	      0.00000000	     27.80446928	     -2.16195921	    -15.04181416	     83.43341523	    -23.93781662	      1.18212529	     90.12534774	     81.93144785	      1.28218688	    -15.72911496	     56.20529283	    -19.55322690	      5.02190163	    116.55229961	     88.61260241	    -14.64788643	    -16.68815034
      4.56666667	     -1.83262229	     -0.52326228	     98.31158428	      0.26334482	      0.77609242	      0.55946475	     -2.08723228	     -3.88513927	    -19.55032162	     10.86114826	      0.18956280	     29.73516509	      6.33174456	      0.00000000	     -2.81891679	      2.94011376	     10.62460368	      4.87239566	      0.08503935	     28.19929441	     -0.05238205	      0.00000000	      0.29283402	     -0.63648425	     -1.73725133	      0.54382206	     -0.84652405	     -1.84582953	      0.48109701	     -1.54754781	     -1.84582953	      0.33468000	     -1.54754781	     -1.52009491	      0.27192567	     -1.29791869	     -1.41151670	      0.16732536	     -0.98591411	     -1.30293849	      2.09168411	     -7.20003715	     -9.66207070	      0.00000000	      0.00000000	     27.77487931	     -2.27071362	    -14.86799455	     83.30041794	    -23.87141446	      1.10147637	     90.39012786	     81.82270309	      1.21295565	    -15.50870018	     56.12272636	    -19.67478745	      4.48378598	    116.68657572	     88.65857191	    -12.53040649	    -15.90291781
      4.58333333	     -1.80951196	     -0.39248145	     98.13533355	      0.26281398	      0.77596657	      0.55907642	     -2.14834279	     -3.95144568	    -19.52444744	     11.11276626	      0.19395436	     29.78911172	      6.40592245	      0.00000000	     -3.29395510	      3.04455336	     14.35988961	      4.23561019	      0.07392534	     26.97022032	     -5.34634382	      0.00000000	      0.28307053	     -0.61501337	     -1.67469966	      0.52569029	     -0.81796778	     -1.77936839	      0.46505658	     -1.49534350	     -1.77936839	      0.32352131	     -1.49534350	     -1.46536221	      0.26285930	     -1.25413526	     -1.36069348	      0.16174650	     -0.95265571	     -1.25602475	      2.02194451	     -6.95715423	     -9.31417713	      0.00000000	      0.00000000	     27.78048500	     -2.51160079	    -14.45175430	     83.19839085	    -24.01850840	      1.13288121	     90.91217863	     81.38689409	      0.87002677	    -14.67705043	     56.15671441	    -19.61929867	      4.89689089	    116.43452707	     88.61818387	    -14.12725387	    -17.05556695
      4.60000000	     -1.88041847	     -0.36786971	     98.43177818	      0.26216222	      0.77584111	      0.55892475	     -2.18594893	     -4.08619657	    -20.13555036	     11.31435790	      0.19747280	     29.88078904	      6.60486155	      0.00000000	     -3.32575841	      3.09633551	     14.68552546	      4.25374856	      0.07424192	     27.02947235	     -5.23166435	      0.00000000	      0.28461022	     -0.61551602	     -1.68025348	      0.52854964	     -0.81863630	     -1.78526933	      0.46758613	     -1.49656564	     -1.78526933	      0.32528102	     -1.49656564	     -1.47022180	      0.26428905	     -1.25516026	     -1.36520596	      0.16262628	     -0.95343431	     -1.26019011	      2.03294233	     -6.96284027	     -9.34506580	      0.00000000	      0.00000000	     27.75172134	     -2.69206047	    -14.32617384	     82.87611597	    -24.18653885	      0.96503965	     91.51000800	     81.18488243	      0.65623634	    -14.33016062	     56.19843364	    -19.52758922	      5.14986490	    116.16800412	     88.61720480	    -14.43578447	    -17.77545927
